# File created by Blade
# Date/Time:  Wed Jan 21 19:03:17 2015
#---------------------------------------------------------
:version 1.10
:name HOM
:units
  mass 1.0
  length 1.000000
  angle deg
:documentation
     Acclaim Skeleton File
:root
   axis xyz
   order TX TY TZ RX RY RZ
   position 0.000000 0.000000 0.000000
   orientation 0 0 0
:bonedata
   begin
      id 1
      name RightUpLeg_dum
      direction -1.000000 0.000000 0.000000
      length 3.693983
      axis 0.0 0.0 0.0 xyz
   end
   begin
      id 2
      name LeftUpLeg_dum
      direction 1.000000 0.000000 0.000000
      length 3.693983
      axis 0.0 0.0 0.0 xyz
   end
   begin
      id 3
      name Spine_dum
      direction 0.000000 1.000000 0.000000
      length 2.392956
      axis 0.0 0.0 0.0 xyz
   end
   begin
      id 4
      name RightUpLeg
      direction 0.000000 -1.000000 0.000000
      length 15.795667
      axis 0.0 0.0 0.0 xyz
      dof rx ry rz
   end
   begin
      id 5
      name RightLeg
      direction 0.000000 -1.000000 0.000000
      length 14.766989
      axis 0.0 0.0 0.0 xyz
      dof rx ry rz
   end
   begin
      id 6
      name RightFoot
      direction 0.000000 -0.258819 0.965926
      length 4.962790
      axis 15.0 0.0 0.0 xyz
      dof rx ry rz
   end
   begin
      id 7
      name RightToeBase
      direction 0.000000 0.000000 1.000000
      length 2.952750
      axis 0.0 0.0 0.0 xyz
      dof rx ry rz
   end
   begin
      id 8
      name LeftUpLeg
      direction 0.000000 -1.000000 0.000000
      length 15.795667
      axis 0.0 0.0 0.0 xyz
      dof rx ry rz
   end
   begin
      id 9
      name LeftLeg
      direction 0.000000 -1.000000 0.000000
      length 14.766989
      axis 0.0 0.0 0.0 xyz
      dof rx ry rz
   end
   begin
      id 10
      name LeftFoot
      direction 0.000000 -0.258819 0.965926
      length 4.962790
      axis 15.0 0.0 0.0 xyz
      dof rx ry rz
   end
   begin
      id 11
      name LeftToeBase
      direction 0.000000 0.000000 1.000000
      length 2.952750
      axis 0.0 0.0 0.0 xyz
      dof rx ry rz
   end
   begin
      id 12
      name Spine
      direction 0.000000 1.000000 0.000000
      length 0.000000
      axis 0.0 0.0 0.0 xyz
      dof rx ry rz
   end
   begin
      id 13
      name Spine_dum1
      direction 0.000000 1.000000 0.000000
      length 13.207411
      axis 0.0 0.0 0.0 xyz
   end
   begin
      id 14
      name Spine_dum2
      direction 0.000000 1.000000 0.000000
      length 13.207411
      axis 0.0 0.0 0.0 xyz
   end
   begin
      id 15
      name Spine_dum3
      direction 0.000000 1.000000 0.000000
      length 19.250100
      axis 0.0 0.0 0.0 xyz
   end
   begin
      id 16
      name RightShoulder
      direction -1.000000 0.000000 0.000000
      length 8.140465
      axis 0.0 0.0 90.0 xyz
      dof rx ry rz
   end
   begin
      id 17
      name RightArm
      direction -1.000000 0.000000 0.000000
      length 10.649840
      axis 0.0 0.0 90.0 xyz
      dof rx ry rz
   end
   begin
      id 18
      name RightForeArm
      direction -1.000000 0.000000 0.000000
      length 8.304624
      axis 0.0 0.0 90.0 xyz
      dof ry rz rx
   end
   begin
      id 19
      name RightHand
      direction -1.000000 0.000000 0.000000
      length 0.000000
      axis 0.0 0.0 90.0 xyz
      dof rx ry rz
   end
   begin
      id 20
      name RightHand_dum1
      direction -1.000000 0.000000 0.000000
      length 3.937000
      axis 0.0 0.0 90.0 xyz
   end
   begin
      id 21
      name RightHand_dum2
      direction 0.000000 0.000000 0.000000
      length 0.000000
      axis 0.0 0.0 90.0 xyz
   end
   begin
      id 22
      name RightHandThumb1
      direction 0.000000 0.000000 1.000000
      length 3.937000
      axis 0.0 0.0 90.0 xyz
      dof rx rz ry
   end
   begin
      id 23
      name LeftShoulder
      direction 1.000000 0.000000 0.000000
      length 8.140465
      axis 0.0 0.0 -90.0 xyz
      dof rx ry rz
   end
   begin
      id 24
      name LeftArm
      direction 1.000000 0.000000 0.000000
      length 10.649840
      axis 0.0 0.0 -90.0 xyz
      dof rx ry rz
   end
   begin
      id 25
      name LeftForeArm
      direction 1.000000 0.000000 0.000000
      length 8.304624
      axis 0.0 0.0 -90.0 xyz
      dof ry rz rx
   end
   begin
      id 26
      name LeftHand
      direction 1.000000 0.000000 0.000000
      length 0.000000
      axis 0.0 0.0 -90.0 xyz
      dof rx ry rz
   end
   begin
      id 27
      name LeftHand_dum1
      direction 1.000000 0.000000 0.000000
      length 3.937000
      axis 0.0 0.0 -90.0 xyz
   end
   begin
      id 28
      name LeftHand_dum2
      direction 0.000000 0.000000 0.000000
      length 0.000000
      axis 0.0 0.0 -90.0 xyz
   end
   begin
      id 29
      name LeftHandThumb1
      direction 0.000000 0.000000 1.000000
      length 3.937000
      axis 0.0 0.0 -90.0 xyz
      dof rx rz ry
   end
   begin
      id 30
      name Head
      direction 0.000000 1.000000 0.000000
      length 4.527550
      axis 0.0 0.0 0.0 xyz
      dof rx ry rz
   end
:hierarchy
   begin
      root RightUpLeg_dum LeftUpLeg_dum Spine_dum
      RightUpLeg_dum RightUpLeg
      LeftUpLeg_dum LeftUpLeg
      Spine_dum Spine
      RightUpLeg RightLeg
      RightLeg RightFoot
      RightFoot RightToeBase
      LeftUpLeg LeftLeg
      LeftLeg LeftFoot
      LeftFoot LeftToeBase
      Spine Spine_dum1 Spine_dum2 Spine_dum3
      Spine_dum1 RightShoulder
      Spine_dum2 LeftShoulder
      Spine_dum3 Head
      RightShoulder RightArm
      RightArm RightForeArm
      RightForeArm RightHand
      RightHand RightHand_dum1 RightHand_dum2
      RightHand_dum2 RightHandThumb1
      LeftShoulder LeftArm
      LeftArm LeftForeArm
      LeftForeArm LeftHand
      LeftHand LeftHand_dum1 LeftHand_dum2
      LeftHand_dum2 LeftHandThumb1
   end

# File created by Blade
# Date/Time:  Wed Jan 21 19:03:07 2015
# Frame Rate: 120.000 fps
#------------------------------------------------------
:FULLY-SPECIFIED
:DEGREES
761
root -4.787444 29.561514 -6.835257 120.851020 -34.535553 2.855614
RightUpLeg -132.770331 -17.635787 14.503552
RightLeg -10.803795 -0.000000 0.000000
RightFoot 7.735723 1.073609 38.088769
RightToeBase 23.302536 -0.000000 -0.000000
LeftUpLeg -103.065061 6.325967 -32.883836
LeftLeg -7.011528 -0.000000 0.000000
LeftFoot -6.560561 5.427099 -20.280095
LeftToeBase 5.657528 -0.000000 -0.000000
Spine 27.239427 -25.545499 17.899038
RightShoulder 14.516883 -4.677679 -39.064684
RightArm 84.132986 20.904530 89.679524
RightForeArm 79.807992 -0.000000 106.382946
RightHand 14.537678 -0.000000 -4.269118
RightHandThumb1 -24.326973 -0.000000 -32.862282
LeftShoulder 26.143484 12.920882 29.373212
LeftArm 105.462401 -18.452365 -91.199189
LeftForeArm -28.713191 0.000000 107.069788
LeftHand -26.956011 -0.000000 19.808186
LeftHandThumb1 -26.253704 0.000000 33.147579
Head 40.629512 9.300982 -23.897098
762
root -4.788650 29.559522 -6.826584 120.823226 -34.516028 2.865181
RightUpLeg -132.748388 -17.621156 14.549115
RightLeg -10.786169 -0.000000 0.000000
RightFoot 7.704110 1.128134 38.075469
RightToeBase 23.352906 -0.000000 -0.000000
LeftUpLeg -103.024301 6.349497 -32.834013
LeftLeg -7.025272 -0.000000 0.000000
LeftFoot -6.564268 5.454848 -20.294279
LeftToeBase 5.602410 -0.000000 -0.000000
Spine 27.263580 -25.544890 17.931400
RightShoulder 14.506848 -4.629169 -39.064068
RightArm 84.044697 20.958699 89.614502
RightForeArm 79.767471 -0.000000 106.380983
RightHand 14.560818 -0.000000 -4.316428
RightHandThumb1 -24.326973 -0.000000 -32.862282
LeftShoulder 26.143720 12.934738 29.397961
LeftArm 105.470036 -18.449150 -91.233303
LeftForeArm -28.805493 -0.000000 107.042253
LeftHand -26.900530 0.000000 19.793287
LeftHandThumb1 -26.253704 0.000000 33.147579
Head 40.632513 9.356021 -23.828639
763
root -4.790714 29.558733 -6.817894 120.806201 -34.500468 2.866209
RightUpLeg -132.719732 -17.599801 14.579379
RightLeg -10.792256 -0.000000 0.000000
RightFoot 7.786097 1.188289 37.824122
RightToeBase 22.948068 -0.000000 -0.000000
LeftUpLeg -102.988852 6.376209 -32.783746
LeftLeg -7.037403 -0.000000 0.000000
LeftFoot -6.582021 5.491361 -20.312743
LeftToeBase 5.649176 -0.000000 -0.000000
Spine 27.286054 -25.528076 17.946532
RightShoulder 14.470437 -4.675897 -39.031213
RightArm 84.071089 21.019972 89.525533
RightForeArm 79.728504 0.000000 106.312045
RightHand 14.451698 -0.000000 -4.398231
RightHandThumb1 -24.326973 -0.000000 -32.862282
LeftShoulder 26.147083 12.919718 29.447091
LeftArm 105.450428 -18.434702 -91.251055
LeftForeArm -28.842152 0.000000 107.012646
LeftHand -26.930579 0.000000 19.812393
LeftHandThumb1 -26.253704 0.000000 33.147579
Head 40.625903 9.400850 -23.692522
764
root -4.791206 29.557733 -6.808707 120.789987 -34.488262 2.870461
RightUpLeg -132.724730 -17.607669 14.607178
RightLeg -10.730365 -0.000000 0.000000
RightFoot 7.716363 1.222815 38.052580
RightToeBase 23.211556 -0.000000 -0.000000
LeftUpLeg -102.960851 6.389562 -32.748993
LeftLeg -7.038715 -0.000000 0.000000
LeftFoot -6.590678 5.516968 -20.311424
LeftToeBase 5.596908 -0.000000 -0.000000
Spine 27.304695 -25.529762 17.969859
RightShoulder 14.446705 -4.675172 -39.031453
RightArm 84.051341 21.082139 89.446500
RightForeArm 79.710738 -0.000000 106.267864
RightHand 14.473603 -0.000000 -4.308906
RightHandThumb1 -24.326973 -0.000000 -32.862282
LeftShoulder 26.153247 12.934423 29.492239
LeftArm 105.482340 -18.400756 -91.329807
LeftForeArm -29.000587 -0.000000 106.993067
LeftHand -26.898552 -0.000000 19.742480
LeftHandThumb1 -26.253704 0.000000 33.147579
Head 40.547492 9.475348 -23.553607
765
root -4.792544 29.555571 -6.795829 120.765498 -34.478043 2.870340
RightUpLeg -132.687706 -17.573198 14.654189
RightLeg -10.743977 -0.000000 0.000000
RightFoot 7.725664 1.244150 38.108839
RightToeBase 23.250491 -0.000000 -0.000000
LeftUpLeg -102.909231 6.418781 -32.699652
LeftLeg -7.050922 -0.000000 0.000000
LeftFoot -6.621479 5.546247 -20.336550
LeftToeBase 5.617284 -0.000000 -0.000000
Spine 27.343738 -25.547553 17.990277
RightShoulder 14.446167 -4.570349 -39.062812
RightArm 83.896861 21.139860 89.390838
RightForeArm 79.720624 0.000000 106.303750
RightHand 14.446542 0.000000 -4.340614
RightHandThumb1 -24.326973 -0.000000 -32.862282
LeftShoulder 26.112364 12.949831 29.497530
LeftArm 105.472002 -18.402672 -91.295542
LeftForeArm -28.924629 -0.000000 106.997114
LeftHand -27.003642 -0.000000 19.879579
LeftHandThumb1 -26.253704 0.000000 33.147579
Head 40.484028 9.576362 -23.441103
766
root -4.794291 29.553367 -6.784445 120.741747 -34.467433 2.874497
RightUpLeg -132.672670 -17.612655 14.654976
RightLeg -10.699685 -0.000000 0.000000
RightFoot 7.799550 1.332047 38.019038
RightToeBase 22.615852 -0.000000 -0.000000
LeftUpLeg -102.866544 6.447270 -32.637022
LeftLeg -7.049783 -0.000000 0.000000
LeftFoot -6.649985 5.593332 -20.366593
LeftToeBase 5.604577 -0.000000 -0.000000
Spine 27.376944 -25.560287 18.020128
RightShoulder 14.421656 -4.531903 -39.101264
RightArm 83.817310 21.161990 89.347195
RightForeArm 79.666044 -0.000000 106.320838
RightHand 14.450408 -0.000000 -4.380616
RightHandThumb1 -24.326973 -0.000000 -32.862282
LeftShoulder 26.128345 12.971626 29.493591
LeftArm 105.496681 -18.419387 -91.306856
LeftForeArm -28.912621 0.000000 107.036435
LeftHand -27.008327 -0.000000 19.944940
LeftHandThumb1 -26.253704 0.000000 33.147579
Head 40.403859 9.641065 -23.405026
